<mxfile modified="2021-07-06T04:20:55.865Z" host="app.diagrams.net" agent="5.0 (Windows NT 10.0; Win64; x64) AppleWebKit/537.36 (KHTML, like Gecko) Chrome/91.0.4472.114 Safari/537.36" etag="wAP8szDxGOOLJiKQdArC" version="14.8.4" type="github">
  <diagram id="Ht1M8jgEwFfnCIfOTk4-" name="Page-1">
    <mxGraphModel dx="3623" dy="2085" grid="1" gridSize="10" guides="1" tooltips="1" connect="1" arrows="1" fold="1" page="1" pageScale="1" pageWidth="827" pageHeight="1169" math="0" shadow="0">
      <root>
        <mxCell id="0" />
        <mxCell id="1" parent="0" />
        <mxCell id="xDhj48sk9tt96FU3-15n-1" value="" style="rounded=1;arcSize=10;dashed=0;fillColor=none;gradientColor=none;strokeWidth=2;" vertex="1" parent="1">
          <mxGeometry x="50" y="306" width="1178" height="1244" as="geometry" />
        </mxCell>
        <mxCell id="xDhj48sk9tt96FU3-15n-3" value="" style="rounded=1;arcSize=10;dashed=0;fillColor=none;gradientColor=none;strokeWidth=2;fontSize=19;" vertex="1" parent="1">
          <mxGeometry x="93.62" y="390" width="1060" height="1100" as="geometry" />
        </mxCell>
        <mxCell id="-QjtrjUzRDEMRZ5MF8oH-47" value="インフラ構成図&lt;br&gt;" style="text;html=1;resizable=0;points=[];autosize=1;align=left;verticalAlign=top;spacingTop=-4;fontSize=30;fontStyle=1" parent="1" vertex="1">
          <mxGeometry x="12" y="65.5" width="230" height="40" as="geometry" />
        </mxCell>
        <mxCell id="xDhj48sk9tt96FU3-15n-2" value="" style="dashed=0;html=1;shape=mxgraph.aws3.cloud;fillColor=#F58536;gradientColor=none;dashed=0;" vertex="1" parent="1">
          <mxGeometry x="62" y="270" width="52" height="36" as="geometry" />
        </mxCell>
        <mxCell id="xDhj48sk9tt96FU3-15n-4" value="" style="dashed=0;html=1;shape=mxgraph.aws3.virtual_private_cloud;fillColor=#F58536;gradientColor=none;dashed=0;" vertex="1" parent="1">
          <mxGeometry x="120" y="450" width="52" height="36" as="geometry" />
        </mxCell>
        <mxCell id="xDhj48sk9tt96FU3-15n-5" value="" style="outlineConnect=0;dashed=0;verticalLabelPosition=bottom;verticalAlign=top;align=center;html=1;shape=mxgraph.aws3.internet_gateway;fillColor=#F58536;gradientColor=none;" vertex="1" parent="1">
          <mxGeometry x="596.5" y="439" width="53.5" height="58" as="geometry" />
        </mxCell>
        <mxCell id="xDhj48sk9tt96FU3-15n-7" value="" style="rounded=1;arcSize=10;dashed=0;fillColor=none;gradientColor=none;strokeWidth=2;" vertex="1" parent="1">
          <mxGeometry x="180" y="860" width="300" height="520" as="geometry" />
        </mxCell>
        <mxCell id="xDhj48sk9tt96FU3-15n-9" value="" style="rounded=1;arcSize=10;dashed=0;fillColor=none;gradientColor=none;strokeWidth=2;" vertex="1" parent="1">
          <mxGeometry x="800" y="860" width="280" height="510" as="geometry" />
        </mxCell>
        <mxCell id="xDhj48sk9tt96FU3-15n-10" value="" style="dashed=0;html=1;shape=mxgraph.aws3.permissions;fillColor=#D9A741;gradientColor=none;dashed=0;" vertex="1" parent="1">
          <mxGeometry x="200" y="840" width="30" height="35" as="geometry" />
        </mxCell>
        <mxCell id="xDhj48sk9tt96FU3-15n-11" value="" style="dashed=0;html=1;shape=mxgraph.aws3.permissions;fillColor=#D9A741;gradientColor=none;dashed=0;" vertex="1" parent="1">
          <mxGeometry x="827" y="840" width="30" height="35" as="geometry" />
        </mxCell>
        <mxCell id="xDhj48sk9tt96FU3-15n-12" value="" style="rounded=1;arcSize=10;dashed=0;fillColor=none;gradientColor=none;strokeWidth=2;" vertex="1" parent="1">
          <mxGeometry x="180" y="570" width="300" height="200" as="geometry" />
        </mxCell>
        <mxCell id="xDhj48sk9tt96FU3-15n-13" value="" style="dashed=0;html=1;shape=mxgraph.aws3.permissions;fillColor=#D9A741;gradientColor=none;dashed=0;" vertex="1" parent="1">
          <mxGeometry x="212" y="550" width="30" height="35" as="geometry" />
        </mxCell>
        <mxCell id="xDhj48sk9tt96FU3-15n-15" value="" style="rounded=1;arcSize=10;dashed=0;fillColor=none;gradientColor=none;strokeWidth=2;" vertex="1" parent="1">
          <mxGeometry x="800" y="550" width="270" height="220" as="geometry" />
        </mxCell>
        <mxCell id="xDhj48sk9tt96FU3-15n-14" value="" style="dashed=0;html=1;shape=mxgraph.aws3.permissions;fillColor=#D9A741;gradientColor=none;dashed=0;" vertex="1" parent="1">
          <mxGeometry x="840" y="530" width="30" height="35" as="geometry" />
        </mxCell>
        <mxCell id="xDhj48sk9tt96FU3-15n-16" value="" style="outlineConnect=0;dashed=0;verticalLabelPosition=bottom;verticalAlign=top;align=center;html=1;shape=mxgraph.aws3.vpc_nat_gateway;fillColor=#F58536;gradientColor=none;" vertex="1" parent="1">
          <mxGeometry x="295.5" y="634" width="69" height="72" as="geometry" />
        </mxCell>
        <mxCell id="xDhj48sk9tt96FU3-15n-17" value="" style="outlineConnect=0;dashed=0;verticalLabelPosition=bottom;verticalAlign=top;align=center;html=1;shape=mxgraph.aws3.vpc_nat_gateway;fillColor=#F58536;gradientColor=none;" vertex="1" parent="1">
          <mxGeometry x="905.5" y="624" width="69" height="72" as="geometry" />
        </mxCell>
        <mxCell id="xDhj48sk9tt96FU3-15n-18" value="" style="outlineConnect=0;dashed=0;verticalLabelPosition=bottom;verticalAlign=top;align=center;html=1;shape=mxgraph.aws3.ecs;fillColor=#F58534;gradientColor=none;" vertex="1" parent="1">
          <mxGeometry x="295.5" y="910" width="72" height="67.5" as="geometry" />
        </mxCell>
        <mxCell id="xDhj48sk9tt96FU3-15n-19" value="" style="outlineConnect=0;dashed=0;verticalLabelPosition=bottom;verticalAlign=top;align=center;html=1;shape=mxgraph.aws3.ecs;fillColor=#F58534;gradientColor=none;" vertex="1" parent="1">
          <mxGeometry x="920" y="930" width="72" height="67.5" as="geometry" />
        </mxCell>
        <mxCell id="xDhj48sk9tt96FU3-15n-21" value="Private Subnet" style="text;html=1;strokeColor=none;fillColor=none;align=center;verticalAlign=middle;whiteSpace=wrap;rounded=0;fontSize=20;" vertex="1" parent="1">
          <mxGeometry x="242" y="1400" width="150" height="20" as="geometry" />
        </mxCell>
        <mxCell id="xDhj48sk9tt96FU3-15n-25" value="Private Subnet" style="text;html=1;strokeColor=none;fillColor=none;align=center;verticalAlign=middle;whiteSpace=wrap;rounded=0;fontSize=20;" vertex="1" parent="1">
          <mxGeometry x="881" y="1400" width="150" height="20" as="geometry" />
        </mxCell>
        <mxCell id="xDhj48sk9tt96FU3-15n-26" value="Public Subnet" style="text;html=1;strokeColor=none;fillColor=none;align=center;verticalAlign=middle;whiteSpace=wrap;rounded=0;fontSize=20;" vertex="1" parent="1">
          <mxGeometry x="865" y="510" width="150" height="20" as="geometry" />
        </mxCell>
        <mxCell id="xDhj48sk9tt96FU3-15n-27" value="Public Subnet" style="text;html=1;strokeColor=none;fillColor=none;align=center;verticalAlign=middle;whiteSpace=wrap;rounded=0;fontSize=20;" vertex="1" parent="1">
          <mxGeometry x="256.5" y="520" width="150" height="20" as="geometry" />
        </mxCell>
        <mxCell id="xDhj48sk9tt96FU3-15n-28" style="edgeStyle=orthogonalEdgeStyle;rounded=0;orthogonalLoop=1;jettySize=auto;html=1;exitX=0.5;exitY=1;exitDx=0;exitDy=0;fontSize=20;" edge="1" parent="1" source="xDhj48sk9tt96FU3-15n-27" target="xDhj48sk9tt96FU3-15n-27">
          <mxGeometry relative="1" as="geometry" />
        </mxCell>
        <mxCell id="xDhj48sk9tt96FU3-15n-29" value="" style="outlineConnect=0;dashed=0;verticalLabelPosition=bottom;verticalAlign=top;align=center;html=1;shape=mxgraph.aws3.application_load_balancer;fillColor=#F58534;gradientColor=none;fontSize=20;" vertex="1" parent="1">
          <mxGeometry x="588.75" y="624" width="69" height="72" as="geometry" />
        </mxCell>
        <mxCell id="xDhj48sk9tt96FU3-15n-30" style="edgeStyle=orthogonalEdgeStyle;rounded=0;orthogonalLoop=1;jettySize=auto;html=1;exitX=0.5;exitY=0;exitDx=0;exitDy=0;entryX=0.5;entryY=1;entryDx=0;entryDy=0;fontSize=20;" edge="1" parent="1" source="xDhj48sk9tt96FU3-15n-27" target="xDhj48sk9tt96FU3-15n-27">
          <mxGeometry relative="1" as="geometry" />
        </mxCell>
        <mxCell id="xDhj48sk9tt96FU3-15n-32" value="" style="rounded=1;arcSize=10;dashed=1;strokeColor=#F59D56;fillColor=none;gradientColor=none;dashPattern=8 4;strokeWidth=2;fontSize=20;" vertex="1" parent="1">
          <mxGeometry x="770" y="510" width="340" height="930" as="geometry" />
        </mxCell>
        <mxCell id="xDhj48sk9tt96FU3-15n-33" value="" style="rounded=1;arcSize=10;dashed=1;strokeColor=#F59D56;fillColor=none;gradientColor=none;dashPattern=8 4;strokeWidth=2;fontSize=20;" vertex="1" parent="1">
          <mxGeometry x="160" y="506.5" width="340" height="933.5" as="geometry" />
        </mxCell>
        <mxCell id="xDhj48sk9tt96FU3-15n-34" value="" style="outlineConnect=0;dashed=0;verticalLabelPosition=bottom;verticalAlign=top;align=center;html=1;shape=mxgraph.aws3.db_on_instance;fillColor=#F58534;gradientColor=none;fontSize=20;" vertex="1" parent="1">
          <mxGeometry x="593.62" y="1250" width="60" height="64.5" as="geometry" />
        </mxCell>
      </root>
    </mxGraphModel>
  </diagram>
</mxfile>
